<svg width="192" height="43" viewBox="0 0 192 43" fill="none" xmlns="http://www.w3.org/2000/svg">
<path d="M28.096 3.936H37.632V6.784H35.6L28.544 28H24.832L17.808 6.784L20.496 10.72H17.6L20.304 6.784L13.136 28H9.472L2.416 6.784H0.4V3.936H9.872V6.784H5.616L12.544 28L9.744 24.192H12.768L10.144 28L17.408 6.784H13.664V3.936H24.448V6.784H20.88L28.032 28L25.232 24.192H28.24L25.632 28L32.624 6.784H28.096V3.936ZM45.3113 25.424H48.0633V28H39.1353V25.424H42.3033V5.296H39.1353V2.72H45.3113V25.424ZM53.9993 25.424V17.056C53.9993 15.8187 53.7166 14.848 53.1513 14.144C52.5966 13.44 51.7433 13.088 50.5913 13.088C49.5886 13.088 48.6873 13.3547 47.8873 13.888C47.0979 14.4213 46.4686 15.1893 45.9993 16.192C45.5406 17.184 45.3113 18.3733 45.3113 19.76L44.6393 16.336H45.4393C45.6206 15.0347 45.9939 13.952 46.5593 13.088C47.1246 12.2133 47.8393 11.5573 48.7033 11.12C49.5779 10.6827 50.5699 10.464 51.6793 10.464C53.4606 10.464 54.7939 10.9973 55.6793 12.064C56.5646 13.1307 57.0073 14.6293 57.0073 16.56V25.424H60.0793V28H51.2953V25.424H53.9993ZM68.8125 25.424H71.9165V28H62.5245V25.424H65.8045V13.44H62.5245V10.864H68.8125V25.424ZM65.3405 3.152H69.0205V6.976H65.3405V3.152ZM79.4053 23.408C79.4053 24.144 79.5386 24.6933 79.8053 25.056C80.0826 25.408 80.4826 25.584 81.0052 25.584C81.5279 25.584 81.9279 25.4027 82.2053 25.04C82.4826 24.6667 82.6213 24.1227 82.6213 23.408V21.728H85.2933V23.376C85.2933 24.432 85.1386 25.328 84.8293 26.064C84.5306 26.8 84.0613 27.36 83.4213 27.744C82.7813 28.128 81.9546 28.32 80.9413 28.32C79.8959 28.32 79.0373 28.1227 78.3653 27.728C77.7039 27.3227 77.2079 26.7573 76.8773 26.032C76.5573 25.296 76.3973 24.4213 76.3973 23.408V13.44H73.5173V10.864H76.3973V6.544H79.4053V10.864H85.0213L84.9893 13.44H79.4053V23.408ZM97.0753 28.32C95.2726 28.32 93.7153 27.9467 92.4033 27.2C91.0913 26.4427 90.0833 25.4027 89.3793 24.08C88.6753 22.7467 88.3233 21.216 88.3233 19.488C88.3233 17.7493 88.6806 16.208 89.3953 14.864C90.1099 13.5093 91.1126 12.4533 92.4033 11.696C93.6939 10.928 95.1979 10.544 96.9153 10.544C98.6539 10.544 100.153 10.9227 101.411 11.68C102.681 12.4373 103.651 13.488 104.323 14.832C105.006 16.176 105.347 17.728 105.347 19.488C105.347 19.744 105.342 19.9467 105.331 20.096C105.321 20.2347 105.305 20.352 105.283 20.448H102.307C102.329 20.288 102.345 20.1173 102.355 19.936C102.366 19.744 102.371 19.52 102.371 19.264C102.371 18.1013 102.153 17.072 101.715 16.176C101.289 15.2693 100.67 14.5547 99.8593 14.032C99.0486 13.5093 98.0673 13.248 96.9153 13.248C95.8059 13.248 94.8353 13.5147 94.0033 14.048C93.1713 14.5707 92.5206 15.3013 92.0513 16.24C91.5926 17.1787 91.3633 18.2613 91.3633 19.488C91.3633 20.672 91.5873 21.7227 92.0353 22.64C92.4939 23.5467 93.1446 24.2613 93.9873 24.784C94.8406 25.296 95.8593 25.552 97.0433 25.552C98.2699 25.552 99.3206 25.2693 100.195 24.704C101.081 24.128 101.731 23.344 102.147 22.352L104.995 23.424C104.377 24.9387 103.369 26.1333 101.971 27.008C100.574 27.8827 98.9419 28.32 97.0753 28.32ZM90.2273 20.448V18.16H104.387L105.283 20.448H90.2273ZM113.877 25.424H117.173V28H107.573V25.424H110.869V5.296H107.573V2.72H113.877V25.424ZM133.375 28C132.809 28 132.377 27.824 132.079 27.472C131.78 27.1093 131.631 26.5973 131.631 25.936V21.6L131.903 20.992L131.743 19.008L131.631 17.856V16.592C131.631 15.8667 131.476 15.2587 131.167 14.768C130.868 14.2773 130.42 13.9093 129.823 13.664C129.225 13.408 128.495 13.28 127.631 13.28C126.383 13.28 125.401 13.536 124.687 14.048C123.972 14.5493 123.513 15.3067 123.311 16.32L120.431 15.728C120.623 14.5653 121.017 13.6 121.615 12.832C122.223 12.0533 123.033 11.472 124.047 11.088C125.071 10.704 126.303 10.512 127.743 10.512C129.279 10.512 130.553 10.7307 131.567 11.168C132.591 11.6053 133.359 12.2613 133.871 13.136C134.383 14 134.639 15.0933 134.639 16.416V25.424H137.055V28H133.375ZM125.471 28.224C123.679 28.224 122.313 27.8187 121.375 27.008C120.436 26.1867 119.967 24.992 119.967 23.424C119.967 22.016 120.367 20.9333 121.167 20.176C121.967 19.408 123.289 18.832 125.135 18.448L132.511 16.928V19.04L125.631 20.592C124.767 20.7947 124.127 21.1093 123.711 21.536C123.295 21.952 123.087 22.5173 123.087 23.232C123.087 24.032 123.332 24.6347 123.823 25.04C124.313 25.4453 125.028 25.648 125.967 25.648C127.108 25.648 128.111 25.376 128.975 24.832C129.849 24.2773 130.527 23.504 131.007 22.512C131.497 21.52 131.743 20.352 131.743 19.008L132.543 22.784H131.503C131.257 24.576 130.628 25.9307 129.615 26.848C128.601 27.7653 127.22 28.224 125.471 28.224ZM141.228 28.464V5.296H138.044V2.72H144.236V16.528L144.14 18.8V21.296L144.236 25.136L141.372 28.464H141.228ZM149.964 28.352C148.599 28.352 147.372 28.1173 146.284 27.648C145.207 27.168 144.295 26.48 143.548 25.584C142.812 24.688 142.284 23.5947 141.964 22.304L144.14 19.44C144.14 20.6453 144.359 21.7173 144.796 22.656C145.234 23.584 145.868 24.3147 146.7 24.848C147.543 25.3813 148.562 25.648 149.756 25.648C150.983 25.648 152.012 25.392 152.844 24.88C153.676 24.3573 154.306 23.632 154.732 22.704C155.159 21.7653 155.372 20.6667 155.372 19.408C155.372 18.1813 155.138 17.104 154.668 16.176C154.199 15.248 153.543 14.5227 152.7 14C151.858 13.4773 150.876 13.216 149.756 13.216C148.583 13.216 147.575 13.4773 146.732 14C145.9 14.5227 145.26 15.2533 144.812 16.192C144.364 17.12 144.14 18.2027 144.14 19.44L143.644 15.52H144.348C144.562 14.5387 144.924 13.6747 145.436 12.928C145.948 12.1707 146.62 11.5787 147.452 11.152C148.284 10.7253 149.276 10.512 150.428 10.512C151.602 10.512 152.679 10.7307 153.66 11.168C154.652 11.6053 155.506 12.224 156.22 13.024C156.935 13.824 157.49 14.7733 157.884 15.872C158.279 16.96 158.476 18.1547 158.476 19.456C158.476 21.2053 158.13 22.752 157.436 24.096C156.743 25.4293 155.756 26.4747 154.476 27.232C153.207 27.9787 151.703 28.352 149.964 28.352ZM170.763 28.32C168.96 28.32 167.403 27.9467 166.091 27.2C164.779 26.4427 163.771 25.4027 163.067 24.08C162.363 22.7467 162.011 21.216 162.011 19.488C162.011 17.7493 162.368 16.208 163.083 14.864C163.797 13.5093 164.8 12.4533 166.091 11.696C167.381 10.928 168.885 10.544 170.603 10.544C172.341 10.544 173.84 10.9227 175.099 11.68C176.368 12.4373 177.339 13.488 178.011 14.832C178.693 16.176 179.035 17.728 179.035 19.488C179.035 19.744 179.029 19.9467 179.019 20.096C179.008 20.2347 178.992 20.352 178.971 20.448H175.995C176.016 20.288 176.032 20.1173 176.043 19.936C176.053 19.744 176.059 19.52 176.059 19.264C176.059 18.1013 175.84 17.072 175.403 16.176C174.976 15.2693 174.357 14.5547 173.547 14.032C172.736 13.5093 171.755 13.248 170.603 13.248C169.493 13.248 168.523 13.5147 167.691 14.048C166.859 14.5707 166.208 15.3013 165.739 16.24C165.28 17.1787 165.051 18.2613 165.051 19.488C165.051 20.672 165.275 21.7227 165.723 22.64C166.181 23.5467 166.832 24.2613 167.675 24.784C168.528 25.296 169.547 25.552 170.731 25.552C171.957 25.552 173.008 25.2693 173.883 24.704C174.768 24.128 175.419 23.344 175.835 22.352L178.683 23.424C178.064 24.9387 177.056 26.1333 175.659 27.008C174.261 27.8827 172.629 28.32 170.763 28.32ZM163.915 20.448V18.16H178.075L178.971 20.448H163.915ZM187.564 25.424H190.86V28H181.26V25.424H184.556V5.296H181.26V2.72H187.564V25.424Z" fill="white"/>
<path d="M5.57096 40.0752C4.98162 40.0752 4.49886 39.9404 4.12269 39.6708C3.75278 39.395 3.54589 39.0219 3.502 38.5517H4.17911C4.21046 38.8401 4.34526 39.0752 4.5835 39.2571C4.82801 39.4326 5.15403 39.5204 5.56155 39.5204C5.91892 39.5204 6.19791 39.4357 6.39854 39.2665C6.60543 39.0972 6.70888 38.8872 6.70888 38.6364C6.70888 38.4608 6.65246 38.3166 6.5396 38.2038C6.42675 38.0909 6.28255 38.0031 6.107 37.9404C5.93773 37.8715 5.70575 37.7994 5.41108 37.7241C5.02864 37.6238 4.71829 37.5235 4.48005 37.4232C4.24181 37.3229 4.03805 37.1756 3.86877 36.9812C3.70576 36.7806 3.62426 36.5141 3.62426 36.1818C3.62426 35.9311 3.69949 35.6991 3.84996 35.4859C4.00043 35.2727 4.21359 35.1035 4.48946 34.9781C4.76532 34.8527 5.07879 34.79 5.42989 34.79C5.98161 34.79 6.42675 34.9311 6.76531 35.2132C7.10386 35.489 7.28568 35.8715 7.31076 36.3605H6.65246C6.63365 36.0596 6.51453 35.8182 6.29509 35.6364C6.08193 35.4483 5.78726 35.3543 5.41108 35.3543C5.07879 35.3543 4.8092 35.4326 4.60231 35.5894C4.39541 35.7461 4.29196 35.9405 4.29196 36.1724C4.29196 36.3731 4.35153 36.5392 4.47065 36.6709C4.59604 36.7963 4.74964 36.8966 4.93146 36.9718C5.11328 37.0408 5.35779 37.1191 5.665 37.2069C6.0349 37.3072 6.32957 37.4044 6.54901 37.4984C6.76844 37.5925 6.95653 37.7304 7.11327 37.9122C7.27001 38.0941 7.35151 38.3354 7.35778 38.6364C7.35778 38.9122 7.28255 39.1599 7.13208 39.3793C6.98161 39.5925 6.77158 39.7618 6.50199 39.8871C6.23239 40.0125 5.92205 40.0752 5.57096 40.0752ZM17.7192 34.8652L14.6722 42.4169H13.9856L14.9825 39.9718L12.8759 34.8652H13.6001L15.3493 39.2477L17.0421 34.8652H17.7192ZM25.2701 40.0752C24.6808 40.0752 24.198 39.9404 23.8219 39.6708C23.452 39.395 23.2451 39.0219 23.2012 38.5517H23.8783C23.9096 38.8401 24.0444 39.0752 24.2827 39.2571C24.5272 39.4326 24.8532 39.5204 25.2607 39.5204C25.6181 39.5204 25.8971 39.4357 26.0977 39.2665C26.3046 39.0972 26.4081 38.8872 26.4081 38.6364C26.4081 38.4608 26.3516 38.3166 26.2388 38.2038C26.1259 38.0909 25.9817 38.0031 25.8062 37.9404C25.6369 37.8715 25.4049 37.7994 25.1103 37.7241C24.7278 37.6238 24.4175 37.5235 24.1792 37.4232C23.941 37.3229 23.7372 37.1756 23.5679 36.9812C23.4049 36.7806 23.3234 36.5141 23.3234 36.1818C23.3234 35.9311 23.3987 35.6991 23.5491 35.4859C23.6996 35.2727 23.9128 35.1035 24.1886 34.9781C24.4645 34.8527 24.778 34.79 25.1291 34.79C25.6808 34.79 26.1259 34.9311 26.4645 35.2132C26.803 35.489 26.9849 35.8715 27.0099 36.3605H26.3516C26.3328 36.0596 26.2137 35.8182 25.9943 35.6364C25.7811 35.4483 25.4864 35.3543 25.1103 35.3543C24.778 35.3543 24.5084 35.4326 24.3015 35.5894C24.0946 35.7461 23.9911 35.9405 23.9911 36.1724C23.9911 36.3731 24.0507 36.5392 24.1698 36.6709C24.2952 36.7963 24.4488 36.8966 24.6306 36.9718C24.8124 37.0408 25.057 37.1191 25.3642 37.2069C25.7341 37.3072 26.0287 37.4044 26.2482 37.4984C26.4676 37.5925 26.6557 37.7304 26.8124 37.9122C26.9692 38.0941 27.0507 38.3354 27.057 38.6364C27.057 38.9122 26.9817 39.1599 26.8312 39.3793C26.6808 39.5925 26.4707 39.7618 26.2012 39.8871C25.9316 40.0125 25.6212 40.0752 25.2701 40.0752ZM34.0422 35.4201V38.6082C34.0422 38.9216 34.1017 39.1379 34.2209 39.2571C34.34 39.3762 34.55 39.4357 34.8509 39.4357H35.4528V40H34.7475C34.2836 40 33.9387 39.8934 33.713 39.6803C33.4873 39.4608 33.3745 39.1035 33.3745 38.6082V35.4201H32.6597V34.8652H33.3745V33.5768H34.0422V34.8652H35.4528V35.4201H34.0422ZM46.0745 37.1693C46.0745 37.395 46.0683 37.5674 46.0557 37.6865H41.7955C41.8144 38.0752 41.9084 38.4075 42.0777 38.6834C42.247 38.9593 42.4695 39.1693 42.7454 39.3135C43.0212 39.4514 43.3222 39.5204 43.6482 39.5204C44.0745 39.5204 44.4319 39.4169 44.7203 39.21C45.015 39.0031 45.2093 38.7241 45.3034 38.373H45.9993C45.8739 38.8746 45.6043 39.2853 45.1905 39.605C44.783 39.9185 44.2689 40.0752 43.6482 40.0752C43.1654 40.0752 42.7328 39.9687 42.3504 39.7555C41.968 39.5361 41.667 39.2288 41.4476 38.8339C41.2344 38.4326 41.1278 37.9655 41.1278 37.4326C41.1278 36.8997 41.2344 36.4326 41.4476 36.0314C41.6608 35.6301 41.9586 35.3229 42.341 35.1097C42.7234 34.8966 43.1592 34.79 43.6482 34.79C44.1372 34.79 44.5636 34.8966 44.9272 35.1097C45.2971 35.3229 45.5792 35.6113 45.7736 35.9749C45.9742 36.3323 46.0745 36.7304 46.0745 37.1693ZM45.4068 37.1505C45.4131 36.768 45.3347 36.442 45.1717 36.1724C45.015 35.9028 44.7987 35.6991 44.5228 35.5611C44.2469 35.4232 43.946 35.3543 43.62 35.3543C43.131 35.3543 42.714 35.511 42.3692 35.8245C42.0244 36.1379 41.8332 36.58 41.7955 37.1505H45.4068ZM58.282 34.7712C58.8839 34.7712 59.3729 34.9624 59.7491 35.3448C60.1316 35.721 60.3228 36.2696 60.3228 36.9906V40H59.6739V37.0658C59.6739 36.5079 59.5391 36.0815 59.2695 35.7869C58.9999 35.4922 58.6331 35.3448 58.1692 35.3448C57.6864 35.3448 57.3008 35.5047 57.0124 35.8245C56.724 36.1442 56.5798 36.6082 56.5798 37.2163V40H55.9309V37.0658C55.9309 36.5079 55.7961 36.0815 55.5266 35.7869C55.257 35.4922 54.8871 35.3448 54.4168 35.3448C53.9341 35.3448 53.5485 35.5047 53.2601 35.8245C52.9717 36.1442 52.8275 36.6082 52.8275 37.2163V40H52.1692V34.8652H52.8275V35.7492C52.9905 35.4295 53.2225 35.1881 53.5234 35.0251C53.8244 34.8558 54.1598 34.7712 54.5297 34.7712C54.9748 34.7712 55.3635 34.8778 55.6958 35.0909C56.0344 35.3041 56.2789 35.6176 56.4294 36.0314C56.5673 35.6238 56.8024 35.3135 57.1347 35.1003C57.4733 34.8809 57.8557 34.7712 58.282 34.7712ZM80.2588 34.7712C80.8607 34.7712 81.3497 34.9624 81.7259 35.3448C82.1083 35.721 82.2996 36.2696 82.2996 36.9906V40H81.6507V37.0658C81.6507 36.5079 81.5159 36.0815 81.2463 35.7869C80.9767 35.4922 80.6099 35.3448 80.146 35.3448C79.6632 35.3448 79.2776 35.5047 78.9892 35.8245C78.7008 36.1442 78.5566 36.6082 78.5566 37.2163V40H77.9077V37.0658C77.9077 36.5079 77.7729 36.0815 77.5033 35.7869C77.2337 35.4922 76.8638 35.3448 76.3936 35.3448C75.9109 35.3448 75.5253 35.5047 75.2369 35.8245C74.9485 36.1442 74.8043 36.6082 74.8043 37.2163V40H74.146V34.8652H74.8043V35.7492C74.9673 35.4295 75.1993 35.1881 75.5002 35.0251C75.8012 34.8558 76.1366 34.7712 76.5065 34.7712C76.9516 34.7712 77.3403 34.8778 77.6726 35.0909C78.0112 35.3041 78.2557 35.6176 78.4062 36.0314C78.5441 35.6238 78.7792 35.3135 79.1115 35.1003C79.45 34.8809 79.8325 34.7712 80.2588 34.7712ZM90.8995 40.0752C90.4167 40.0752 89.981 39.9687 89.5923 39.7555C89.2098 39.5361 88.9057 39.2288 88.68 38.8339C88.4606 38.4326 88.3509 37.9655 88.3509 37.4326C88.3509 36.8997 88.4637 36.4358 88.6894 36.0408C88.9151 35.6395 89.2224 35.3323 89.6111 35.1191C89.9998 34.8997 90.4355 34.79 90.9183 34.79C91.401 34.79 91.8368 34.8997 92.2255 35.1191C92.6205 35.3323 92.9277 35.6395 93.1471 36.0408C93.3728 36.4358 93.4857 36.8997 93.4857 37.4326C93.4857 37.9593 93.3728 38.4232 93.1471 38.8245C92.9214 39.2257 92.6111 39.5361 92.2161 39.7555C91.8211 39.9687 91.3822 40.0752 90.8995 40.0752ZM90.8995 39.5016C91.238 39.5016 91.5515 39.4263 91.8399 39.2759C92.1283 39.1191 92.3603 38.8872 92.5358 38.5799C92.7176 38.2665 92.8085 37.884 92.8085 37.4326C92.8085 36.9812 92.7208 36.6019 92.5452 36.2947C92.3697 35.9812 92.1377 35.7492 91.8493 35.5988C91.5609 35.442 91.2474 35.3637 90.9089 35.3637C90.5703 35.3637 90.2568 35.442 89.9684 35.5988C89.68 35.7492 89.4481 35.9812 89.2725 36.2947C89.1032 36.6019 89.0186 36.9812 89.0186 37.4326C89.0186 37.884 89.1032 38.2665 89.2725 38.5799C89.4481 38.8872 89.6769 39.1191 89.959 39.2759C90.2474 39.4263 90.5609 39.5016 90.8995 39.5016ZM99.275 37.4232C99.275 36.8966 99.3816 36.4358 99.5947 36.0408C99.8079 35.6395 100.099 35.3323 100.469 35.1191C100.846 34.8997 101.269 34.79 101.739 34.79C102.19 34.79 102.598 34.8997 102.961 35.1191C103.325 35.3386 103.592 35.6238 103.761 35.9749V33.0408H104.419V40H103.761V38.8527C103.604 39.21 103.347 39.5047 102.99 39.7367C102.632 39.9624 102.212 40.0752 101.73 40.0752C101.259 40.0752 100.836 39.9655 100.46 39.7461C100.09 39.5266 99.7985 39.2163 99.5853 38.8151C99.3784 38.4138 99.275 37.9499 99.275 37.4232ZM103.761 37.4326C103.761 37.0188 103.676 36.6552 103.507 36.3417C103.338 36.0282 103.106 35.7869 102.811 35.6176C102.523 35.4483 102.203 35.3637 101.852 35.3637C101.488 35.3637 101.162 35.4452 100.874 35.6082C100.585 35.7712 100.356 36.0094 100.187 36.3229C100.024 36.6301 99.9427 36.9969 99.9427 37.4232C99.9427 37.8433 100.024 38.2132 100.187 38.5329C100.356 38.8464 100.585 39.0878 100.874 39.2571C101.162 39.4201 101.488 39.5016 101.852 39.5016C102.203 39.5016 102.523 39.4169 102.811 39.2477C103.106 39.0784 103.338 38.837 103.507 38.5235C103.676 38.21 103.761 37.8464 103.761 37.4326ZM115.458 37.1693C115.458 37.395 115.452 37.5674 115.439 37.6865H111.179C111.198 38.0752 111.292 38.4075 111.461 38.6834C111.63 38.9593 111.853 39.1693 112.129 39.3135C112.405 39.4514 112.706 39.5204 113.032 39.5204C113.458 39.5204 113.815 39.4169 114.104 39.21C114.398 39.0031 114.593 38.7241 114.687 38.373H115.383C115.257 38.8746 114.988 39.2853 114.574 39.605C114.167 39.9185 113.652 40.0752 113.032 40.0752C112.549 40.0752 112.116 39.9687 111.734 39.7555C111.351 39.5361 111.051 39.2288 110.831 38.8339C110.618 38.4326 110.511 37.9655 110.511 37.4326C110.511 36.8997 110.618 36.4326 110.831 36.0314C111.044 35.6301 111.342 35.3229 111.725 35.1097C112.107 34.8966 112.543 34.79 113.032 34.79C113.521 34.79 113.947 34.8966 114.311 35.1097C114.681 35.3229 114.963 35.6113 115.157 35.9749C115.358 36.3323 115.458 36.7304 115.458 37.1693ZM114.79 37.1505C114.797 36.768 114.718 36.442 114.555 36.1724C114.398 35.9028 114.182 35.6991 113.906 35.5611C113.63 35.4232 113.33 35.3543 113.004 35.3543C112.514 35.3543 112.098 35.511 111.753 35.8245C111.408 36.1379 111.217 36.58 111.179 37.1505H114.79ZM122.211 33.0408V40H121.553V33.0408H122.211Z" fill="white"/>
</svg>
